<svg xmlns="http://www.w3.org/2000/svg" version="1.1" width="210px" height="210px"
     style="shape-rendering:geometricPrecision; text-rendering:geometricPrecision; image-rendering:optimizeQuality; fill-rule:evenodd; clip-rule:evenodd"
>
    <g>
        <path style="opacity:1" fill="#f32050"
              d="M 99.5,39.5 C 110.544,39.507 121.21,41.3403 131.5,45C 122.99,49.7551 114.324,54.2551 105.5,58.5C 96.3163,54.4864 87.3163,49.9864 78.5,45C 85.5105,42.9682 92.5105,41.1348 99.5,39.5 Z"/>
    </g>
    <g>
        <path style="opacity:1" fill="#f31c4f"
              d="M 11.5,41.5 C 25.1221,42.2984 38.7887,42.7984 52.5,43C 70.1667,51.8333 87.8333,60.6667 105.5,69.5C 123.167,60.6667 140.833,51.8333 158.5,43C 172.5,42.3333 186.5,42.3333 200.5,43C 183.112,52.3606 165.445,61.1939 147.5,69.5C 129.565,65.217 116.731,71.5504 109,88.5C 106.667,91.1667 104.333,91.1667 102,88.5C 94.4201,71.6269 81.5867,65.2935 63.5,69.5C 46.2895,60.728 28.9562,52.228 11.5,44C 10.4019,43.2303 10.4019,42.397 11.5,41.5 Z"/>
    </g>
    <g>
        <path style="opacity:1" fill="#f3184d"
              d="M 33.5,114.5 C 31.8904,102.083 32.2238,89.7493 34.5,77.5C 35.3084,72.5417 37.6418,68.5417 41.5,65.5C 46.607,67.2195 51.2736,69.7195 55.5,73C 40.8574,85.0868 38.0241,99.5868 47,116.5C 56.1198,127.865 67.7865,131.865 82,128.5C 85.4339,129.549 88.7672,130.882 92,132.5C 94.2645,130.833 96.4312,129 98.5,127C 106.712,123.513 113.545,125.346 119,132.5C 122.355,130.737 125.855,129.404 129.5,128.5C 150.178,131.916 163.345,123.583 169,103.5C 170.614,90.5657 166.114,80.399 155.5,73C 159.831,69.5842 164.664,67.0842 170,65.5C 180.108,78.9538 183.108,93.9538 179,110.5C 177.285,116.264 175.285,121.93 173,127.5C 155.065,136.884 136.898,145.884 118.5,154.5C 115.46,163.583 111.127,171.916 105.5,179.5C 104.108,178.395 102.941,177.061 102,175.5C 98.7261,168.496 95.5594,161.496 92.5,154.5C 74.4565,145.763 56.4565,136.929 38.5,128C 35.9376,123.811 34.2709,119.311 33.5,114.5 Z"/>
    </g>
    <g>
        <path style="opacity:1" fill="#ef3861"
              d="M 137.5,69.5 C 140.861,70.2032 141.194,71.5365 138.5,73.5C 136.358,72.5629 136.024,71.2296 137.5,69.5 Z"/>
    </g>
    <g>
        <path style="opacity:1" fill="#ed335d"
              d="M 71.5,69.5 C 72.5,69.5 73.5,69.5 74.5,69.5C 74.4261,73.5412 73.0928,74.2079 70.5,71.5C 70.8627,70.8165 71.1961,70.1499 71.5,69.5 Z"/>
    </g>
    <g>
        <path style="opacity:1" fill="#f42454"
              d="M 89.5,108.5 C 85.4391,107.868 81.6058,106.535 78,104.5C 73.4797,107.221 69.4797,106.554 66,102.5C 65.6667,99.1667 65.3333,95.8333 65,92.5C 62.7041,87.9385 61.0375,83.2719 60,78.5C 63.5307,82.3972 66.6974,86.5639 69.5,91C 76.3391,90.5044 80.1724,93.671 81,100.5C 84.3329,102.667 87.1663,105.334 89.5,108.5 Z"/>
    </g>
    <g>
        <path style="opacity:1" fill="#f5335f"
              d="M 34.5,77.5 C 32.2238,89.7493 31.8904,102.083 33.5,114.5C 31.1183,109.039 30.1183,103.205 30.5,97C 30.0015,89.9883 31.3348,83.4883 34.5,77.5 Z"/>
    </g>
    <g>
        <path style="opacity:1" fill="#f32152"
              d="M 150.5,78.5 C 151.097,78.7352 151.43,79.2352 151.5,80C 147.425,86.9744 145.258,94.4744 145,102.5C 141.528,106.579 137.528,107.246 133,104.5C 129.4,106.702 125.567,107.869 121.5,108C 124.949,105.518 128.116,102.685 131,99.5C 131.303,97.1116 132.137,94.9449 133.5,93C 136.867,92.2004 140.034,91.0337 143,89.5C 145.52,85.7757 148.02,82.1091 150.5,78.5 Z"/>
    </g>
    <g>
        <path style="opacity:1" fill="#f63a67"
              d="M 44.5,96.5 C 46.9118,96.6941 47.9118,98.0274 47.5,100.5C 44.0464,100.733 43.0464,99.3999 44.5,96.5 Z"/>
    </g>
    <g>
        <path style="opacity:1" fill="#f33664"
              d="M 164.5,96.5 C 165.995,96.4148 166.995,97.0815 167.5,98.5C 166.68,100.111 165.346,100.778 163.5,100.5C 163.433,99.0413 163.766,97.7079 164.5,96.5 Z"/>
    </g>
    <g>
        <path style="opacity:1" fill="#f33764"
              d="M 98.5,96.5 C 100.912,96.6941 101.912,98.0274 101.5,100.5C 98.0464,100.733 97.0464,99.3999 98.5,96.5 Z"/>
    </g>
    <g>
        <path style="opacity:1" fill="#f5416c"
              d="M 110.5,96.5 C 112.912,96.6941 113.912,98.0274 113.5,100.5C 112.167,100.5 110.833,100.5 109.5,100.5C 109.433,99.0413 109.766,97.7079 110.5,96.5 Z"/>
    </g>
    <g>
        <path style="opacity:0.008" fill="#fe7f7e" d="M 89.5,108.5 C 90.8333,109.167 90.8333,109.167 89.5,108.5 Z"/>
    </g>
    <g>
        <path style="opacity:1" fill="#f53a63"
              d="M 136.5,124.5 C 138.346,124.222 139.68,124.889 140.5,126.5C 139.311,127.429 137.978,127.762 136.5,127.5C 136.5,126.5 136.5,125.5 136.5,124.5 Z"/>
    </g>
    <g>
        <path style="opacity:1" fill="#f22756"
              d="M 71.5,124.5 C 72.5,124.5 73.5,124.5 74.5,124.5C 74.4983,128.541 73.165,129.208 70.5,126.5C 70.8627,125.817 71.1961,125.15 71.5,124.5 Z"/>
    </g>
</svg>
